<?xml version="1.0" encoding="UTF-8"?>
<svg version="1.1" xmlns="http://www.w3.org/2000/svg" width="1220" height="636">
<path d="M0 0 C17.49 0 34.98 0 53 0 C55.43375 6.88875 57.8675 13.7775 60.375 20.875 C66.76518189 38.93374569 73.20120442 56.97555302 79.6875 75 C80.06227478 76.04250916 80.43704956 77.08501831 80.82318115 78.15911865 C85.13106874 90.13852847 89.48742565 102.09604699 94 114 C93.82609741 112.38327393 93.82609741 112.38327393 93.64868164 110.73388672 C93.21194428 106.66741926 92.77849387 102.60060658 92.34594727 98.53369141 C92.15964472 96.78620239 91.97249547 95.03880341 91.78442383 93.29150391 C91.51150758 90.75447445 91.24181899 88.21711762 90.97265625 85.6796875 C90.89032242 84.92074188 90.80798859 84.16179626 90.72315979 83.37985229 C89.4476451 71.26788138 88.85338536 59.24915456 88.90234375 47.0703125 C88.90421572 45.70026705 88.90563593 44.33022092 88.90663147 42.96017456 C88.91039542 39.40604709 88.92017102 35.85196245 88.93133545 32.29785156 C88.94168357 28.65039662 88.94621274 25.00293435 88.95117188 21.35546875 C88.96126621 14.23694172 88.98085273 7.11853128 89 0 C106.49 0 123.98 0 142 0 C142 66.33 142 132.66 142 201 C124.51 201 107.02 201 89 201 C80.95802547 179.17178343 80.95802547 179.17178343 77.6171875 169.6328125 C77.24005112 168.5598291 76.86291473 167.4868457 76.47434998 166.38134766 C75.27321733 162.96303724 74.07407633 159.54403221 72.875 156.125 C72.03943993 153.74588417 71.20374517 151.36681565 70.36791992 148.98779297 C68.70040303 144.24082942 67.03366236 139.49359459 65.36767578 134.74609375 C63.20386467 128.58012549 61.03799518 122.41488282 58.87109375 116.25 C55.91294882 107.83372421 52.95592267 99.41705655 50 91 C50.09087891 91.88067139 50.18175781 92.76134277 50.27539062 93.66870117 C52.74716606 118.81267834 53.27013883 143.81978057 53.1875 169.0625 C53.18493195 169.85249264 53.18236389 170.64248528 53.17971802 171.45641708 C53.14534426 181.30457733 53.07607914 191.15197824 53 201 C35.51 201 18.02 201 0 201 C0 134.67 0 68.34 0 0 Z " fill="#004F9F" transform="translate(907,270)"/>
<path d="M0 0 C18.15 0 36.3 0 55 0 C55.33 25.74 55.66 51.48 56 78 C61.89286141 60.93552262 61.89286141 60.93552262 67.78515625 43.87084961 C68.54425096 41.67300746 69.30336442 39.47517179 70.0625 37.27734375 C70.43181641 36.20746216 70.80113281 35.13758057 71.18164062 34.03527832 C75.10298725 22.68381733 79.05453481 11.34321242 83 0 C102.47 0 121.94 0 142 0 C140.08083692 5.75748923 138.28755059 10.84850462 135.76953125 16.26953125 C135.46197906 16.93608734 135.15442688 17.60264343 134.83755493 18.28939819 C134.17675335 19.72087732 133.51396276 21.15143971 132.84933472 22.58114624 C131.05275652 26.44753058 129.27286586 30.32158586 127.4921875 34.1953125 C126.93871895 35.39830238 126.93871895 35.39830238 126.37406921 36.62559509 C122.32249678 45.44722078 118.37252718 54.31340671 114.4375 63.1875 C114.11278717 63.91901276 113.78807434 64.65052551 113.45352173 65.40420532 C112.97826553 66.47509903 112.97826553 66.47509903 112.4934082 67.56762695 C112.02522926 68.62173012 112.02522926 68.62173012 111.54759216 69.6971283 C110.93550109 71.08174506 110.32747855 72.46816837 109.72377014 73.85646057 C108.18851259 77.37933749 106.59343112 80.84966275 104.87548828 84.28759766 C104.53566422 84.99233719 104.19584015 85.69707672 103.84571838 86.423172 C103.20320984 87.75259859 102.53832978 89.07155982 101.84654236 90.37602234 C100.0684604 94.12980637 99.85114352 96.57755948 101.07250977 100.42919922 C101.68356735 101.96567846 102.32656485 103.48981957 103 105 C103.30609695 105.7047496 103.61219391 106.40949921 103.92756653 107.13560486 C104.91230983 109.32460633 105.94442023 111.48502653 106.9921875 113.64453125 C107.37443985 114.44371475 107.7566922 115.24289825 108.15052795 116.06629944 C108.96583259 117.76963117 109.78345758 119.47185394 110.60324097 121.17303467 C112.76567212 125.66104058 114.91059029 130.15741999 117.05859375 134.65234375 C117.48578201 135.54495911 117.91297028 136.43757446 118.35310364 137.35723877 C123.48436928 148.0856591 128.48145352 158.87464413 133.46191406 169.67382812 C134.83080755 172.63411462 136.20641304 175.59110496 137.58586121 178.54647827 C138.44663648 180.39122614 139.30576303 182.23673213 140.16430664 184.08251953 C141.23886144 186.39207222 142.31604706 188.70040326 143.39624023 191.00732422 C143.87005127 192.02842285 144.3438623 193.04952148 144.83203125 194.1015625 C145.25202393 195.00213379 145.6720166 195.90270508 146.10473633 196.83056641 C147 199 147 199 147 201 C127.2 201 107.4 201 87 201 C79.375 179.875 79.375 179.875 77.07177734 173.48779297 C70.13525449 154.29168657 63.05673818 135.15400362 56 116 C55.67 144.05 55.34 172.1 55 201 C36.85 201 18.7 201 0 201 C0 134.67 0 68.34 0 0 Z " fill="#004F9F" transform="translate(386,270)"/>
<path d="M0 0 C33.33 0 66.66 0 101 0 C101 15.84 101 31.68 101 48 C85.82 48 70.64 48 55 48 C55 56.91 55 65.82 55 75 C68.86 75 82.72 75 97 75 C97 90.84 97 106.68 97 123 C83.14 123 69.28 123 55 123 C55 132.9 55 142.8 55 153 C70.18 153 85.36 153 101 153 C101 169.17 101 185.34 101 202 C67.67 202 34.34 202 0 202 C0 135.34 0 68.68 0 0 Z " fill="#004F9F" transform="translate(1075,270)"/>
<path d="M0 0 C33.33 0 66.66 0 101 0 C101 15.84 101 31.68 101 48 C85.82 48 70.64 48 55 48 C55 56.91 55 65.82 55 75 C68.86 75 82.72 75 97 75 C97 90.84 97 106.68 97 123 C83.14 123 69.28 123 55 123 C55 132.9 55 142.8 55 153 C70.18 153 85.36 153 101 153 C101 169.17 101 185.34 101 202 C67.67 202 34.34 202 0 202 C0 135.34 0 68.68 0 0 Z " fill="#004F9F" transform="translate(779,270)"/>
<path d="M0 0 C18.81 0 37.62 0 57 0 C58.826813 4.26256366 60.41428176 8.00871131 61.70166016 12.36865234 C61.99851715 13.36593353 62.29537415 14.36321472 62.60122681 15.39071655 C62.91071259 16.44513947 63.22019836 17.49956238 63.5390625 18.5859375 C63.86538666 19.68346344 64.19171082 20.78098938 64.52792358 21.91177368 C65.56426503 25.39834924 66.5951496 28.88650208 67.625 32.375 C68.66234936 35.88481062 69.70093495 39.3942312 70.74349976 42.90249634 C71.39102963 45.08172091 72.03549689 47.26185822 72.67666626 49.44296265 C72.96721893 50.42133087 73.25777161 51.3996991 73.55712891 52.40771484 C73.81233307 53.27262543 74.06753723 54.13753601 74.33047485 55.02865601 C74.83044032 56.9778231 74.83044032 56.9778231 76 58 C76.21075668 57.30286896 76.42151337 56.60573792 76.63865662 55.88748169 C78.62322891 49.32415816 80.60952295 42.76135794 82.59776211 36.19914436 C83.61992179 32.82527092 84.64140993 29.45119718 85.66137695 26.07666016 C86.83346446 22.1989414 88.00844785 18.32210551 89.18359375 14.4453125 C89.55028671 13.23070343 89.91697968 12.01609436 90.29478455 10.76467896 C90.6350618 9.64366791 90.97533905 8.52265686 91.32592773 7.36767578 C91.6257103 6.37728302 91.92549286 5.38689026 92.23435974 4.3664856 C93 2 93 2 94 0 C112.81 0 131.62 0 151 0 C150.29864062 3.50679692 149.68656668 6.08763873 148.38037109 9.29492188 C147.88167007 10.52876617 147.88167007 10.52876617 147.37289429 11.78753662 C146.82866318 13.11473724 146.82866318 13.11473724 146.2734375 14.46875 C145.89377838 15.40462952 145.51411926 16.34050903 145.12295532 17.30474854 C143.87774705 20.37152134 142.62639407 23.43574673 141.375 26.5 C140.50869434 28.63036301 139.64281276 30.76089852 138.77734375 32.89160156 C137.02397924 37.20661571 135.26833682 41.52069157 133.51074219 45.83398438 C131.26352316 51.35017711 129.02397606 56.86943664 126.7890625 62.390625 C126.4634433 63.19491943 126.1378241 63.99921387 125.80233765 64.82788086 C125.16859749 66.39330152 124.534879 67.95873095 123.90118408 69.52416992 C121.52286094 75.39837842 121.52286094 75.39837842 120.5138092 77.87471008 C119.95571522 79.25737703 119.4071317 80.64391531 118.86741638 82.03385925 C117.17761615 86.3340054 115.28866731 90.42492355 113.15893555 94.52661133 C103.02026466 115.01875415 103.48607085 134.83143283 103.78112793 157.25671387 C103.84348865 163.08246647 103.82200051 168.90850059 103.81536102 174.7345047 C103.81437291 183.49146967 103.91662373 192.2416137 104 201 C85.85 201 67.7 201 49 201 C49.19464844 195.33457031 49.38929688 189.66914063 49.58984375 183.83203125 C50.60974619 142.12856984 50.50926351 107.65531245 29.97195435 70.33213806 C23.67284397 58.85952813 18.72654076 46.84494344 13.71124268 34.775177 C12.22367681 31.21166277 10.71138466 27.65983021 9.18896484 24.11108398 C8.26525045 21.95168113 7.34158258 19.79225837 6.41796875 17.6328125 C5.99816238 16.65632248 5.57835602 15.67983246 5.14582825 14.67375183 C4.75892319 13.76192642 4.37201813 12.85010101 3.97338867 11.91064453 C3.47122078 10.73479294 3.47122078 10.73479294 2.95890808 9.53518677 C1.78156451 6.42249442 0.91424746 3.19986611 0 0 Z " fill="#004F9F" transform="translate(616,270)"/>
<path d="M0 0 C4.3920871 1.93768549 7.38739282 5.25500483 10.64453125 8.671875 C13.2884137 11.28506561 16.06758042 13.69578199 18.87475586 16.13085938 C22.28531499 19.13042752 25.57598748 22.25389721 28.875 25.375 C33.98775667 30.19139906 39.13708222 34.95281028 44.37890625 39.62890625 C47.78917614 42.7139045 51.14388483 45.85631294 54.5 49 C58.63361255 52.87171308 62.77600046 56.72656041 67 60.5 C71.8957906 64.87357293 76.68162005 69.36021046 81.47265625 73.84765625 C84.95089033 77.1010348 88.44800473 80.32688423 92 83.5 C96.8957906 87.87357293 101.68162005 92.36021046 106.47265625 96.84765625 C109.95089033 100.1010348 113.44800473 103.32688423 117 106.5 C121.88593398 110.86476769 126.66916047 115.33555469 131.43969727 119.82568359 C134.31193206 122.52260732 137.19105071 125.19440679 140.18359375 127.7578125 C141.09238281 128.53898438 142.00117188 129.32015625 142.9375 130.125 C143.73027344 130.78757812 144.52304687 131.45015625 145.33984375 132.1328125 C147 134 147 134 147 138 C145.56640625 140.19140625 145.56640625 140.19140625 143.5625 142.5625 C142.83933594 143.43132812 142.11617188 144.30015625 141.37109375 145.1953125 C140.58863281 146.12085938 139.80617188 147.04640625 139 148 C137.37180594 149.97653986 135.74674205 151.95566287 134.125 153.9375 C133.38507813 154.83339844 132.64515625 155.72929687 131.8828125 156.65234375 C129.90225342 159.05145848 129.90225342 159.05145848 128 162 C123.28042291 160.57636157 120.48670338 157.80956955 117.1875 154.3125 C113.31319602 150.26232641 109.32122018 146.48212662 105.07739258 142.8190918 C101.54474382 139.72568883 98.15528348 136.48214681 94.75 133.25 C88.88445742 127.7052989 82.9819657 122.20994682 77.01953125 116.76953125 C72.86103655 112.96648719 68.75222296 109.11012687 64.63623047 105.26123047 C60.60430924 101.49268557 56.55935825 97.73896493 52.5 94 C47.17356122 89.09344369 41.87656896 84.15605834 36.5859375 79.2109375 C32.05260707 74.97609796 27.50129667 70.76141782 22.93603516 66.56103516 C19.93028391 63.79240943 16.93928941 61.00903927 13.9609375 58.2109375 C13.28095703 57.57285156 12.60097656 56.93476563 11.90039062 56.27734375 C10.57704414 55.03439344 9.25535493 53.78967565 7.93554688 52.54296875 C7.33548828 51.97964844 6.73542969 51.41632813 6.1171875 50.8359375 C5.32223877 50.08642822 5.32223877 50.08642822 4.51123047 49.32177734 C2.82609597 47.78999427 2.82609597 47.78999427 0 46 C-0.9178125 46.85722656 -1.835625 47.71445312 -2.78125 48.59765625 C-14.31013013 59.34662304 -14.31013013 59.34662304 -20.0859375 64.3359375 C-24.108299 67.83292933 -28.04379566 71.42859365 -32 75 C-34.49687992 77.24796977 -36.99453151 79.49508007 -39.4921875 81.7421875 C-41.18592894 83.26708244 -42.87861169 84.79315402 -44.5703125 86.3203125 C-48.31564256 89.69912708 -52.06518207 93.06895965 -55.875 96.375 C-59.30332192 99.35916686 -62.65620801 102.42188484 -66 105.5 C-69.95864649 109.14411716 -73.95176688 112.73913655 -78.015625 116.265625 C-82.05374691 119.79500714 -86.01914681 123.40634226 -90 127 C-92.49687992 129.24796977 -94.99453151 131.49508007 -97.4921875 133.7421875 C-99.18592894 135.26708244 -100.87861169 136.79315402 -102.5703125 138.3203125 C-106.31564256 141.69912708 -110.06518207 145.06895965 -113.875 148.375 C-117.92277065 151.89408224 -121.86160672 155.52836221 -125.78857422 159.18115234 C-128.42378955 161.61774648 -131.07842053 163.91315752 -134 166 C-137.86328627 164.4152642 -140.28876923 161.94043113 -143.203125 158.9921875 C-143.6857782 158.50670441 -144.1684314 158.02122131 -144.66571045 157.52102661 C-146.19858562 155.97700134 -147.72434004 154.42615176 -149.25 152.875 C-150.29120361 151.82375991 -151.33286541 150.77297343 -152.375 149.72265625 C-154.92199464 147.15366996 -157.46265177 144.57851839 -160 142 C-158.20868246 138.10222094 -155.732022 135.6316776 -152.5625 132.8125 C-151.75897095 132.0863147 -151.75897095 132.0863147 -150.93920898 131.34545898 C-146.69371056 127.54007702 -142.28991222 123.95188623 -137.84765625 120.37890625 C-134.04561367 117.2027143 -130.45096248 113.82729178 -126.83618164 110.44165039 C-122.64670474 106.5400333 -118.27827064 102.92675203 -113.8125 99.34375 C-110.60150195 96.66791829 -107.54970863 93.85641724 -104.5 91 C-99.76133536 86.56167326 -94.87880674 82.4085775 -89.8125 78.34375 C-86.60150195 75.66791829 -83.54970863 72.85641724 -80.5 70 C-75.76133536 65.56167326 -70.87880674 61.4085775 -65.8125 57.34375 C-62.60150195 54.66791829 -59.54970863 51.85641724 -56.5 49 C-51.76133536 44.56167326 -46.87880674 40.4085775 -41.8125 36.34375 C-38.60150195 33.66791829 -35.54970863 30.85641724 -32.5 28 C-27.77278213 23.57239453 -22.90466568 19.42656573 -17.84765625 15.375 C-13.83808531 12.03094083 -10.03472656 8.4791069 -6.23828125 4.89648438 C-2.19569547 1.09784773 -2.19569547 1.09784773 0 0 Z " fill="#004F9F" transform="translate(193,247)"/>
<path d="M0 0 C7.32644406 3.47489662 13.82151859 9.00468547 18 16 C20.44599909 23.50816337 19.77412429 31.64675375 19.58935547 39.43701172 C19.58540039 41.78387209 19.58763491 44.13074975 19.59555054 46.4776001 C19.59954848 52.81281982 19.51756504 59.14428748 19.41951513 65.47863913 C19.34058454 71.43836949 19.32676286 77.39796623 19.31238891 83.35814871 C19.2818471 95.15304201 19.18895425 106.94656966 19.05615234 118.74072266 C18.92738493 130.18857046 18.82841727 141.63604559 18.76904297 153.08447266 C18.76536484 153.79169947 18.76168671 154.49892629 18.75789712 155.22758423 C18.73962485 158.77600198 18.72193336 162.32442235 18.70453048 165.87284446 C18.55970614 195.24946593 18.30950965 224.62465622 18 254 C6.78 254 -4.44 254 -16 254 C-16.15829966 224.07126281 -16.28359679 194.14257189 -16.35745731 164.21350685 C-16.36621208 160.67879553 -16.37527235 157.14408506 -16.38452148 153.609375 C-16.38635766 152.9056884 -16.38819383 152.20200179 -16.39008565 151.47699136 C-16.42053127 140.08824471 -16.47571555 128.69974583 -16.54006957 117.31114608 C-16.60556866 105.62227464 -16.6444195 93.9335328 -16.65861946 82.24448538 C-16.66774763 75.68010248 -16.68920981 69.1162812 -16.7401104 62.55207825 C-16.78763593 56.37304375 -16.80227794 50.19480202 -16.79175377 44.01560211 C-16.79367897 41.74843792 -16.80759591 39.48124713 -16.83443832 37.21424103 C-16.86932586 34.11569263 -16.86087665 31.02012777 -16.84178162 27.92150879 C-16.86217151 27.02654772 -16.8825614 26.13158666 -16.90356916 25.20950556 C-16.80141852 19.06749843 -15.06547339 16.04669414 -10.76067406 11.69111395 C-10.17965162 11.13304635 -9.59862918 10.57497874 -9 10 C-8.12472656 9.0203125 -7.24945313 8.040625 -6.34765625 7.03125 C-5.59355469 6.1959375 -4.83945313 5.360625 -4.0625 4.5 C-2.90427734 3.21609375 -2.90427734 3.21609375 -1.72265625 1.90625 C-1.15417969 1.2771875 -0.58570313 0.648125 0 0 Z " fill="#004F9F" transform="translate(191,332)"/>
<path d="M0 0 C13.83089305 6.91544653 30.98180043 22.12755406 37.0493927 36.48273468 C40.84723676 48.75423406 39.8354872 62.14050556 39.24460602 74.80341721 C39.04085676 79.9293999 39.02549062 85.05638454 38.98779297 90.18579102 C38.88935885 99.84484134 38.62834232 109.49193043 38.3046093 119.14577198 C37.94356106 130.15789731 37.7701769 141.1706781 37.61035538 152.18727303 C37.2782162 174.79962312 36.6928951 197.39562971 36 220 C24.12 220 12.24 220 0 220 C0 147.4 0 74.8 0 0 Z " fill="#004F9F" transform="translate(228,366)"/>
<path d="M0 0 C0 72.6 0 145.2 0 220 C-11.88 220 -23.76 220 -36 220 C-36.77220792 196.33549605 -37.39637084 172.68141988 -37.76161385 149.0074482 C-37.93583045 138.01121484 -38.17341157 127.02352618 -38.56494141 116.03271484 C-41.36502159 35.92191428 -41.36502159 35.92191428 -26.10150719 17.79707909 C-20.34754894 11.72560309 -9.03367573 0 0 0 Z " fill="#004F9F" transform="translate(157,366)"/>
<path d="M0 0 C3.76871288 2.18310064 6.6042838 4.41202795 9.625 7.5625 C12.04001519 10.07230248 14.09106113 12.06070742 17 14 C17.36914349 16.97913551 17.36914349 16.97913551 17.36076355 20.88418579 C17.36332682 21.6005163 17.3658901 22.31684682 17.36853105 23.05488431 C17.37349237 25.46731621 17.35693803 27.8791292 17.34057617 30.29150391 C17.3397304 32.01591477 17.34020406 33.74032671 17.34190369 35.46473694 C17.34276703 40.15671156 17.32508656 44.84845769 17.30418181 49.54037905 C17.28547137 54.43978001 17.28366903 59.33918577 17.28010559 64.23861694 C17.27076852 73.52112608 17.24613232 82.80352964 17.21605712 92.08599222 C17.18256473 102.65172355 17.16604011 113.21745984 17.15097082 123.78323102 C17.11958417 145.52221301 17.06679146 167.26109987 17 189 C13.14477603 187.20473306 10.36470785 184.72441579 7.3125 181.8125 C2.4250627 177.23184663 -2.61026938 172.98785624 -8 169 C-8.26683594 169.58265625 -8.53367188 170.1653125 -8.80859375 170.765625 C-10.02386752 173.04476137 -11.37069172 174.80462832 -13.0625 176.75 C-13.58972656 177.36359375 -14.11695313 177.9771875 -14.66015625 178.609375 C-15.10230469 179.06828125 -15.54445312 179.5271875 -16 180 C-16.33 180 -16.66 180 -17 180 C-17.39800667 158.59885851 -17.69732701 137.19833124 -17.88080692 115.79423332 C-17.96828558 105.85456137 -18.08742503 95.91719515 -18.2824707 85.97900391 C-18.4524951 77.3115562 -18.56172116 68.64577855 -18.59950441 59.97670949 C-18.62157829 55.38994949 -18.6730109 50.80796456 -18.79741096 46.22274399 C-19.58573657 16.05641378 -19.58573657 16.05641378 -13.1022644 8.56109619 C-9.1578196 4.93273706 -4.8857115 2.18844738 0 0 Z " fill="#E51B20" transform="translate(194,30)"/>
<path d="M0 0 C0 56.43 0 112.86 0 171 C-11.55 171 -23.1 171 -35 171 C-35.31665126 152.69268584 -35.57426854 134.38760521 -35.72537041 116.07824326 C-35.79741043 107.57590102 -35.8955246 99.07538697 -36.05615234 90.57421875 C-36.19617414 83.16004679 -36.28612414 75.74719905 -36.31723893 68.33174157 C-36.33541652 64.40835268 -36.37777244 60.48875004 -36.48022079 56.56658173 C-37.12741249 30.80206006 -37.12741249 30.80206006 -31.99664307 24.52868652 C-29.19184073 21.83732673 -26.18137644 19.86344825 -22.76494217 18.03453827 C-19.83109425 16.31483436 -17.57535092 14.03592125 -15.125 11.6875 C-14.25230469 10.88957031 -13.37960938 10.09164063 -12.48046875 9.26953125 C-11.66191406 8.52058594 -10.84335938 7.77164062 -10 7 C-8.48484073 5.61875006 -6.96457643 4.24306309 -5.4375 2.875 C-4.81746094 2.31554687 -4.19742188 1.75609375 -3.55859375 1.1796875 C-2 0 -2 0 0 0 Z " fill="#004F9F" transform="translate(102,415)"/>
<path d="M0 0 C4.21181055 2.52708633 7.10795728 4.79755527 10.625 8.125 C15.39153115 12.5892597 20.3033831 16.77958572 25.4296875 20.83203125 C26.27789062 21.54746094 27.12609375 22.26289063 28 23 C29.02896393 23.75181549 30.05792786 24.50363098 31.11807251 25.27822876 C35.00813216 29.24287964 34.71001191 33.432782 34.746521 38.75802612 C34.72494934 40.06425934 34.70337769 41.37049255 34.68115234 42.71630859 C34.67945853 44.11618985 34.68041257 45.51607643 34.68380737 46.91595459 C34.68552535 50.70520485 34.65030959 54.49331007 34.60836363 58.28229475 C34.57079545 62.24604925 34.56732651 66.2098315 34.56021118 70.17373657 C34.54158005 77.67489116 34.49236704 85.1755196 34.43211424 92.67644274 C34.3649947 101.21806193 34.33204651 109.75970657 34.30194163 118.30152392 C34.23926581 135.86804131 34.12925556 153.43383764 34 171 C22.78 171 11.56 171 0 171 C0 114.57 0 58.14 0 0 Z " fill="#004F9F" transform="translate(283,415)"/>
<path d="M0 0 C11.55 0 23.1 0 35 0 C35 50.16 35 100.32 35 152 C31.15910395 150.07955197 29.25238762 148.47414161 26.296875 145.45703125 C25.39839844 144.54759766 24.49992187 143.63816406 23.57421875 142.70117188 C22.63243069 141.73865469 21.69102645 140.77576181 20.75 139.8125 C15.17521399 134.13186362 9.63555119 128.50406442 3.56738281 123.34643555 C0.03634901 120.31315651 0.03634901 120.31315651 -0.24609566 117.87981987 C-0.24425207 116.99674219 -0.24240849 116.11366451 -0.24050903 115.2038269 C-0.24463303 113.68515518 -0.24463303 113.68515518 -0.24884033 112.13580322 C-0.24164978 111.02090515 -0.23445923 109.90600708 -0.22705078 108.75732422 C-0.22734283 107.5866037 -0.22763489 106.41588318 -0.22793579 105.20968628 C-0.22677919 101.99496203 -0.21673198 98.78041071 -0.20278788 95.56572104 C-0.19030592 92.20781292 -0.18911203 88.84990161 -0.18673706 85.49197388 C-0.18051481 79.13129983 -0.16409398 72.77069434 -0.14403808 66.41005051 C-0.1217022 59.16952276 -0.11069148 51.92899179 -0.10064721 44.68843818 C-0.07972835 29.79224762 -0.04304288 14.89614613 0 0 Z " fill="#E51B20" transform="translate(284,162)"/>
<path d="M0 0 C11.22 0 22.44 0 34 0 C34.66025437 15.14381831 35.19190318 30.28095648 35.50255299 45.4356184 C35.65078941 52.47665993 35.85259668 59.50790518 36.18774414 66.54272461 C38.57502689 117.63892486 38.57502689 117.63892486 25.69660091 132.4008112 C18.08883505 140.34754017 9.39365821 146.36380507 0 152 C0 101.84 0 51.68 0 0 Z " fill="#E51B20" transform="translate(70,162)"/>
<path d="M0 0 C11.88 0 23.76 0 36 0 C36.31704023 13.48291968 36.5735484 26.96334173 36.72537041 40.4491539 C36.79826061 46.7121465 36.89701261 52.97244486 37.05615234 59.23388672 C37.20893929 65.28364505 37.29211172 71.33082289 37.3282814 77.38236237 C37.35403425 79.68387726 37.40433041 81.98525992 37.48022079 84.28566742 C38.08023516 103.2374265 38.08023516 103.2374265 32.99224854 108.9942627 C30.13981465 111.6632379 27.07655437 113.83659227 23.754673 115.88036346 C21.04604969 117.60870465 18.69113504 119.66360956 16.25 121.75 C14.50175307 123.16882948 12.75176437 124.58551563 11 126 C10.05382812 126.76957031 9.10765625 127.53914063 8.1328125 128.33203125 C7.22273437 129.06808594 6.31265625 129.80414063 5.375 130.5625 C4.55773437 131.22378906 3.74046875 131.88507813 2.8984375 132.56640625 C1 134 1 134 0 134 C0 89.78 0 45.56 0 0 Z " fill="#E51B20" transform="translate(121,131)"/>
<path d="M0 0 C11.55 0 23.1 0 35 0 C35 44.22 35 88.44 35 134 C29.69370052 130.02027539 24.63788726 126.05882517 19.6875 121.6875 C14.20075526 116.88366666 8.64865531 112.19389839 2.9765625 107.609375 C1 106 1 106 0 105 C-0.09535213 103.63391674 -0.1218867 102.26294545 -0.12025452 100.89353943 C-0.12162918 100.00867859 -0.12300385 99.12381775 -0.12442017 98.21214294 C-0.12082489 97.23391068 -0.11722961 96.25567841 -0.11352539 95.24780273 C-0.11367142 94.2235318 -0.11381744 93.19926086 -0.1139679 92.14395142 C-0.11326828 88.74047771 -0.10547363 85.33705796 -0.09765625 81.93359375 C-0.09579224 79.58089732 -0.09436826 77.2282005 -0.09336853 74.87550354 C-0.08954199 68.66943295 -0.07971055 62.4633856 -0.06866455 56.25732422 C-0.05845334 49.93001622 -0.05387154 43.60270448 -0.04882812 37.27539062 C-0.0380884 24.85024854 -0.02049051 12.42512983 0 0 Z " fill="#E51B20" transform="translate(232,131)"/>
<path d="M0 0 C21.78 0 43.56 0 66 0 C66 14.52 66 29.04 66 44 C44.22 44 22.44 44 0 44 C0 29.48 0 14.96 0 0 Z " fill="#004F9F" transform="translate(543,364)"/>
<path d="M0 0 C4.95 0 9.9 0 15 0 C18.35236372 3.54047231 19.87600318 5.79556877 22 10 C23.03300784 11.68825548 24.06671888 13.376186 25.11968994 15.05206299 C26.9968664 18.05088732 28.80470549 21.09144311 30.625 24.125 C31.73830562 25.97322334 32.85261863 27.82083477 33.96737671 29.66818237 C34.97424506 31.33782854 35.97866238 33.00895209 36.98291016 34.68017578 C39.28812217 38.47420543 41.64709937 42.23535899 44 46 C44.33 30.82 44.66 15.64 45 0 C48.63 0 52.26 0 56 0 C56 21.78 56 43.56 56 66 C51.05 66 46.1 66 41 66 C35.65577621 59.91486249 35.65577621 59.91486249 34.22460938 57.0234375 C33.9077417 56.40049805 33.59087402 55.77755859 33.2644043 55.13574219 C32.95027588 54.51344727 32.63614746 53.89115234 32.3125 53.25 C31.66875314 52.06738911 31.0196777 50.88766282 30.36523438 49.7109375 C28.22085755 45.81967809 26.11149656 41.90919864 24 38 C20.04 31.4 16.08 24.8 12 18 C11.67 33.84 11.34 49.68 11 66 C7.37 66 3.74 66 0 66 C0 44.22 0 22.44 0 0 Z " fill="#E51B20" transform="translate(899,516)"/>
<path d="M0 0 C7.58525801 4.93191677 11.6380794 12.39511745 14 21 C15.04914382 33.23594481 14.38466571 43.9845221 6.375 53.875 C-0.1232752 60.66533252 -8.12892954 64.01146405 -17.43188477 64.34350586 C-27.51403003 64.49704107 -36.19306882 62.82569734 -43.9375 55.8125 C-51.54448991 47.33135722 -53.50849052 38.01603869 -53.265625 26.95703125 C-52.61774855 17.30557764 -49.42696404 10.01816397 -42.58984375 3.13671875 C-31.38300647 -6.10934459 -12.56909581 -7.72927156 0 0 Z M-36 15 C-36.556875 15.598125 -37.11375 16.19625 -37.6875 16.8125 C-41.49008831 23.15014719 -41.61249133 29.96656742 -40 37 C-37.7656967 43.61623435 -35.04021994 47.78540505 -28.8671875 51.16015625 C-22.93855878 53.82679887 -17.36516704 53.78838901 -11.25 51.75 C-4.76043788 48.2556204 -1.69724102 44.76954608 1 38 C3.15994263 30.78124436 2.52210018 23.65129675 -1 17 C-4.51309803 11.6639542 -8.72444139 8.30837292 -15 7 C-23.8121937 6.15298693 -30.02812828 8.19870165 -36 15 Z " fill="#E51B20" transform="translate(695,519)"/>
<path d="M0 0 C1.35575333 0.96938676 2.69652209 1.96138404 4 3 C2.33248852 6.94139078 -0.22710649 9.7892812 -3 13 C-3.66 12.731875 -4.32 12.46375 -5 12.1875 C-5.99 11.795625 -6.98 11.40375 -8 11 C-8.59296875 10.73574219 -9.1859375 10.47148438 -9.796875 10.19921875 C-16.36248042 7.42853326 -21.92484889 7.02620215 -28.75 9.1875 C-34.32783444 12.29821536 -37.74132353 16.01450736 -40 22 C-41.90259379 30.44458935 -40.22330819 37.12989634 -36.6875 44.875 C-33.60630421 48.75502433 -29.84202676 51.08824725 -25 52 C-18.3144103 52.44639807 -12.40613953 51.93392891 -6 50 C-6 45.05 -6 40.1 -6 35 C-10.29 35 -14.58 35 -19 35 C-19 31.37 -19 27.74 -19 24 C-11.08 24 -3.16 24 5 24 C5 35.22 5 46.44 5 58 C-6.97663783 63.98831891 -18.85457689 66.12849957 -32.109375 63.34765625 C-40.40080798 60.3478055 -46.4205555 54.60441345 -50.9921875 47.1875 C-55.36554666 37.69493748 -55.38073697 26.64784436 -52.5625 16.6875 C-49.58210231 8.88370251 -44.14206174 2.32501911 -36.6875 -1.5625 C-25.36115699 -5.97785405 -10.80403938 -5.83106097 0 0 Z " fill="#E51B20" transform="translate(1030,519)"/>
<path d="M0 0 C38.77381922 0 38.77381922 0 48.828125 9.5859375 C56.56059478 18.18066111 56.51631806 28.07183937 56.11865234 39.01367188 C55.63898628 47.0436371 52.01063174 52.01591864 46.55078125 57.76171875 C32.8819199 69.75598759 18.66947007 66 0 66 C0 44.22 0 22.44 0 0 Z M11 11 C11 25.52 11 40.04 11 55 C25.68687169 55.63115598 25.68687169 55.63115598 37.87109375 49.38671875 C43.02008011 43.81791095 44.48598357 38.1480748 44.31640625 30.6640625 C43.63245468 24.90535913 41.69345757 19.83457904 37.75 15.5625 C28.09698209 10.07783074 23.51311363 11 11 11 Z " fill="#E51B20" transform="translate(786,516)"/>
<path d="M0 0 C3.63 0 7.26 0 11 0 C11 8.58 11 17.16 11 26 C20.57 26 30.14 26 40 26 C40 17.42 40 8.84 40 0 C43.63 0 47.26 0 51 0 C51 21.78 51 43.56 51 66 C47.37 66 43.74 66 40 66 C40 56.43 40 46.86 40 37 C30.43 37 20.86 37 11 37 C11 46.57 11 56.14 11 66 C7.37 66 3.74 66 0 66 C0 44.22 0 22.44 0 0 Z " fill="#E51B20" transform="translate(570,516)"/>
<path d="M0 0 C3.63 0 7.26 0 11 0 C11 18.15 11 36.3 11 55 C19.91 55 28.82 55 38 55 C38 58.63 38 62.26 38 66 C25.46 66 12.92 66 0 66 C0 44.22 0 22.44 0 0 Z " fill="#E51B20" transform="translate(730,516)"/>
<path d="M0 0 C3.63 0 7.26 0 11 0 C11 21.78 11 43.56 11 66 C7.37 66 3.74 66 0 66 C0 44.22 0 22.44 0 0 Z " fill="#E51B20" transform="translate(864,516)"/>
</svg>
